<?xml version="1.0" standalone="no"?>
<!DOCTYPE svg PUBLIC "-//W3C//DTD SVG 20010904//EN"
 "http://www.w3.org/TR/2001/REC-SVG-20010904/DTD/svg10.dtd">
<svg version="1.0" xmlns="http://www.w3.org/2000/svg"
 width="2673.000000pt" height="1269.000000pt" viewBox="0 0 2673.000000 1269.000000"
 preserveAspectRatio="xMidYMid meet">
<metadata>
Created by potrace 1.16, written by Peter Selinger 2001-2019
</metadata>
<g transform="translate(0.000000,1269.000000) scale(0.100000,-0.100000)"
fill="#f5f2ed" stroke="none">
<path d="M23310 11475 c-10 -12 -40 -15 -150 -15 -110 0 -140 -3 -150 -15 -9
-10 -32 -15 -75 -15 -43 0 -66 -5 -75 -15 -7 -8 -27 -15 -45 -15 -18 0 -38 -7
-45 -15 -8 -9 -30 -15 -60 -15 -30 0 -52 -6 -60 -15 -7 -8 -27 -15 -45 -15
-18 0 -38 -7 -45 -15 -7 -8 -27 -15 -45 -15 -18 0 -38 -7 -45 -15 -7 -8 -20
-15 -30 -15 -10 0 -23 -7 -30 -15 -7 -8 -20 -15 -29 -15 -10 0 -30 -13 -46
-30 -20 -21 -38 -30 -60 -30 -22 0 -40 -9 -60 -30 -16 -16 -36 -30 -45 -30 -9
0 -36 -20 -60 -45 -24 -25 -51 -45 -60 -45 -9 0 -29 -13 -45 -30 -16 -16 -36
-30 -45 -30 -20 0 -270 -250 -270 -271 0 -8 -13 -28 -30 -44 -16 -16 -30 -36
-30 -45 0 -9 -20 -36 -45 -60 -25 -24 -45 -52 -45 -61 0 -9 -7 -22 -15 -29 -8
-7 -15 -20 -15 -29 0 -10 -13 -30 -30 -46 -21 -20 -30 -38 -30 -61 0 -17 -7
-37 -15 -44 -8 -7 -15 -20 -15 -30 0 -10 -7 -23 -15 -30 -8 -7 -15 -20 -15
-30 0 -10 -7 -23 -15 -30 -8 -7 -15 -27 -15 -45 0 -18 -7 -38 -15 -45 -9 -8
-15 -30 -15 -60 0 -30 -6 -52 -15 -60 -8 -7 -15 -20 -15 -30 0 -10 -7 -23 -15
-30 -11 -9 -15 -35 -15 -105 0 -70 -4 -96 -15 -105 -13 -11 -15 -55 -15 -285
0 -230 2 -274 15 -285 10 -9 15 -32 15 -75 0 -43 5 -66 15 -75 9 -8 15 -30 15
-60 0 -30 6 -52 15 -60 9 -8 15 -30 15 -60 0 -30 6 -52 15 -60 8 -7 15 -27 15
-45 0 -18 7 -38 15 -45 8 -7 15 -20 15 -30 0 -10 7 -23 15 -30 8 -7 15 -27 15
-45 0 -18 7 -38 15 -45 8 -7 15 -20 15 -30 0 -10 7 -23 15 -30 8 -7 15 -20 15
-29 0 -9 20 -37 45 -61 25 -24 45 -52 45 -61 0 -9 7 -22 15 -29 8 -7 15 -20
15 -29 0 -9 20 -37 45 -61 25 -24 45 -51 45 -60 0 -24 72 -90 98 -90 16 0 22
-6 22 -23 0 -26 126 -157 151 -157 8 0 28 -13 44 -30 16 -16 36 -30 45 -30 9
0 36 -20 60 -45 24 -25 51 -45 60 -45 9 0 29 -13 45 -30 16 -16 36 -30 46 -30
9 0 22 -7 29 -15 7 -8 20 -15 30 -15 10 0 23 -7 30 -15 7 -8 20 -15 30 -15 10
0 23 -7 30 -15 7 -8 27 -15 45 -15 18 0 38 -7 45 -15 7 -8 20 -15 30 -15 10 0
23 -7 30 -15 7 -8 20 -15 30 -15 10 0 23 -7 30 -15 7 -8 27 -15 45 -15 18 0
38 -7 45 -15 8 -9 30 -15 60 -15 30 0 52 -6 60 -15 9 -10 32 -15 75 -15 43 0
66 -5 75 -15 10 -12 37 -15 122 -15 87 0 110 -3 114 -15 4 -8 12 -15 19 -15 7
0 15 7 19 15 7 20 70 20 86 0 8 -9 30 -15 60 -15 30 0 52 6 60 15 7 8 28 15
47 15 21 0 36 -6 39 -15 4 -8 12 -15 19 -15 7 0 15 7 19 15 4 12 27 15 114 15
85 0 112 3 122 15 9 10 32 15 75 15 43 0 66 5 75 15 7 8 27 15 45 15 18 0 38
7 45 15 8 9 30 15 60 15 30 0 52 6 60 15 7 8 20 15 30 15 10 0 23 7 30 15 7 8
20 15 30 15 10 0 23 7 30 15 7 8 27 15 45 15 18 0 38 7 45 15 7 8 20 15 30 15
10 0 23 7 30 15 7 8 20 15 30 15 10 0 23 7 30 15 7 8 20 15 29 15 10 0 30 14
46 30 16 17 36 30 46 30 9 0 22 7 29 15 7 8 20 15 29 15 9 0 43 27 76 60 33
33 66 60 75 60 20 0 240 221 240 241 0 8 20 35 45 59 25 24 45 51 45 60 0 9
20 36 45 60 25 24 45 51 45 60 0 9 14 29 30 45 17 16 30 36 30 46 0 9 7 22 15
29 8 7 15 20 15 30 0 10 7 23 15 30 8 7 15 27 15 45 0 18 7 38 15 45 8 7 15
27 15 45 0 18 7 38 15 45 8 7 15 20 15 30 0 10 7 23 15 30 8 7 15 27 15 45 0
18 7 38 15 45 9 8 15 30 15 60 0 30 6 52 15 60 10 9 15 32 15 75 0 43 5 66 15
75 13 11 15 58 15 315 0 257 -2 304 -15 315 -11 9 -15 33 -15 90 0 57 -4 81
-15 90 -8 7 -15 27 -15 45 0 18 -7 38 -15 45 -8 7 -15 27 -15 45 0 18 -7 38
-15 45 -8 7 -15 20 -15 30 0 10 -7 23 -15 30 -8 7 -15 27 -15 45 0 18 -7 38
-15 45 -8 7 -15 20 -15 30 0 10 -7 23 -15 30 -8 7 -15 20 -15 30 0 10 -7 23
-15 30 -8 7 -15 27 -15 44 0 23 -9 41 -30 61 -16 16 -30 36 -30 45 0 9 -13 29
-30 45 -16 16 -30 36 -30 45 0 8 -27 42 -60 75 -33 33 -60 66 -60 75 0 24
-102 120 -128 120 -16 0 -22 6 -22 23 0 26 -67 97 -91 97 -8 0 -35 20 -59 45
-24 25 -51 45 -60 45 -9 0 -29 14 -45 30 -16 17 -36 30 -45 30 -9 0 -29 14
-45 30 -16 17 -36 30 -46 30 -9 0 -22 7 -29 15 -7 8 -20 15 -30 15 -10 0 -23
7 -30 15 -7 8 -20 15 -30 15 -10 0 -23 7 -30 15 -7 8 -20 15 -30 15 -10 0 -23
7 -30 15 -7 8 -27 15 -45 15 -18 0 -38 7 -45 15 -7 8 -27 15 -45 15 -18 0 -38
7 -45 15 -8 9 -30 15 -60 15 -30 0 -52 6 -60 15 -7 8 -27 15 -45 15 -18 0 -38
7 -45 15 -9 10 -32 15 -75 15 -43 0 -66 5 -75 15 -10 12 -40 15 -150 15 -110
0 -140 3 -150 15 -9 11 -33 15 -90 15 -57 0 -81 -4 -90 -15z m150 -180 c10
-12 38 -15 135 -15 97 0 125 -3 135 -15 8 -9 30 -15 60 -15 30 0 52 -6 60 -15
8 -9 30 -15 60 -15 30 0 52 -6 60 -15 7 -8 20 -15 30 -15 10 0 23 -7 30 -15 7
-8 27 -15 45 -15 18 0 38 -7 45 -15 7 -8 20 -15 30 -15 10 0 23 -7 30 -15 7
-8 20 -15 29 -15 9 0 37 -20 61 -45 24 -25 51 -45 60 -45 9 0 29 -13 45 -30
16 -16 36 -30 44 -30 21 0 271 -250 271 -271 0 -9 7 -22 15 -29 8 -7 15 -20
15 -29 0 -10 14 -30 30 -46 17 -16 30 -36 30 -46 0 -9 7 -22 15 -29 8 -7 15
-20 15 -29 0 -10 14 -30 30 -46 17 -16 30 -36 30 -46 0 -9 7 -22 15 -29 8 -7
15 -20 15 -30 0 -10 7 -23 15 -30 8 -7 15 -27 15 -45 0 -18 7 -38 15 -45 9 -8
15 -30 15 -60 0 -30 6 -52 15 -60 9 -8 15 -30 15 -60 0 -30 6 -52 15 -60 10
-9 15 -32 15 -75 0 -43 5 -66 15 -75 12 -10 15 -38 15 -135 0 -97 3 -125 15
-135 12 -10 15 -38 15 -135 0 -97 -3 -125 -15 -135 -12 -10 -15 -40 -15 -150
0 -110 -3 -140 -15 -150 -10 -9 -15 -32 -15 -75 0 -43 -5 -66 -15 -75 -8 -7
-15 -27 -15 -45 0 -18 -7 -38 -15 -45 -9 -8 -15 -30 -15 -60 0 -30 -6 -52 -15
-60 -8 -7 -15 -27 -15 -45 0 -18 -7 -38 -15 -45 -8 -7 -15 -20 -15 -30 0 -10
-7 -23 -15 -30 -8 -7 -15 -20 -15 -29 0 -10 -13 -30 -30 -46 -16 -16 -30 -36
-30 -46 0 -9 -7 -22 -15 -29 -8 -7 -15 -20 -15 -30 0 -10 -7 -23 -15 -30 -8
-7 -15 -20 -15 -29 0 -10 -13 -30 -30 -46 -16 -16 -30 -36 -30 -44 0 -21 -250
-271 -270 -271 -9 0 -36 -20 -60 -45 -24 -25 -51 -45 -60 -45 -9 0 -29 -13
-45 -30 -20 -21 -38 -30 -60 -30 -22 0 -40 -9 -60 -30 -20 -21 -38 -30 -61
-30 -17 0 -37 -7 -44 -15 -7 -8 -20 -15 -30 -15 -10 0 -23 -7 -30 -15 -7 -8
-27 -15 -45 -15 -18 0 -38 -7 -45 -15 -7 -8 -27 -15 -45 -15 -18 0 -38 -7 -45
-15 -10 -12 -38 -15 -135 -15 -97 0 -125 -3 -135 -15 -17 -21 -133 -21 -150 0
-10 12 -43 15 -180 15 -137 0 -170 3 -180 15 -7 8 -27 15 -45 15 -18 0 -38 7
-45 15 -7 8 -27 15 -45 15 -18 0 -38 7 -45 15 -7 8 -20 15 -30 15 -10 0 -23 7
-30 15 -7 8 -27 15 -45 15 -18 0 -38 7 -45 15 -7 8 -20 15 -30 15 -10 0 -23 7
-30 15 -7 8 -20 15 -30 15 -10 0 -23 7 -30 15 -7 8 -20 15 -29 15 -9 0 -43 27
-76 60 -33 33 -66 60 -75 60 -20 0 -240 220 -240 240 0 9 -20 36 -45 60 -25
24 -45 52 -45 61 0 9 -7 22 -15 29 -8 7 -15 20 -15 29 0 10 -13 30 -30 46 -16
16 -30 36 -30 46 0 9 -7 22 -15 29 -8 7 -15 20 -15 30 0 10 -7 23 -15 30 -8 7
-15 20 -15 30 0 10 -7 23 -15 30 -8 7 -15 27 -15 45 0 18 -7 38 -15 45 -8 7
-15 27 -15 45 0 18 -7 38 -15 45 -8 7 -15 27 -15 45 0 18 -7 38 -15 45 -11 9
-15 35 -15 105 0 70 -4 96 -15 105 -12 10 -15 47 -15 212 0 167 -2 200 -15
204 -8 4 -15 12 -15 19 0 7 7 15 15 19 13 4 15 35 15 189 0 152 3 187 15 197
11 9 15 33 15 90 0 57 4 81 15 90 8 7 15 27 15 45 0 18 7 38 15 45 8 7 15 27
15 45 0 18 7 38 15 45 8 7 15 20 15 30 0 10 7 23 15 30 8 7 15 20 15 30 0 10
7 23 15 30 8 7 15 27 15 45 0 18 7 38 15 45 8 7 15 20 15 29 0 10 14 30 30 46
17 16 30 36 30 46 0 9 7 22 15 29 8 7 15 20 15 29 0 9 27 43 60 76 33 33 60
66 60 75 0 20 190 210 210 210 9 0 36 20 60 45 24 25 52 45 61 45 9 0 22 7 29
15 7 8 20 15 29 15 10 0 30 14 46 30 16 17 36 30 46 30 9 0 22 7 29 15 7 8 27
15 45 15 18 0 38 7 45 15 7 8 20 15 30 15 10 0 23 7 30 15 8 9 30 15 60 15 30
0 52 6 60 15 8 9 30 15 60 15 30 0 52 6 60 15 10 12 38 15 135 15 97 0 125 3
135 15 8 9 30 15 60 15 30 0 52 -6 60 -15z"/>
<path d="M2490 11445 c-9 -11 -33 -15 -90 -15 -57 0 -81 -4 -90 -15 -8 -9 -30
-15 -60 -15 -30 0 -52 -6 -60 -15 -8 -9 -30 -15 -60 -15 -30 0 -52 -6 -60 -15
-7 -8 -20 -15 -30 -15 -10 0 -23 -7 -30 -15 -7 -8 -27 -15 -45 -15 -18 0 -38
-7 -45 -15 -7 -8 -20 -15 -30 -15 -10 0 -23 -7 -30 -15 -7 -8 -20 -15 -29 -15
-10 0 -30 -13 -46 -30 -16 -16 -36 -30 -45 -30 -20 0 -270 -250 -270 -271 0
-8 -13 -28 -30 -44 -21 -20 -30 -38 -30 -61 0 -17 -7 -37 -15 -44 -8 -7 -15
-20 -15 -30 0 -10 -7 -23 -15 -30 -9 -8 -15 -30 -15 -60 0 -30 -6 -52 -15 -60
-12 -10 -15 -48 -15 -225 0 -177 3 -215 15 -225 8 -7 15 -27 15 -45 0 -18 7
-38 15 -45 8 -7 15 -27 15 -45 0 -18 7 -38 15 -45 8 -7 15 -20 15 -29 0 -10
13 -30 30 -46 17 -16 30 -36 30 -45 0 -8 34 -49 75 -90 50 -49 75 -82 75 -97
0 -17 6 -23 23 -23 14 0 44 -22 82 -60 33 -33 67 -60 75 -60 9 0 29 -13 45
-30 16 -16 36 -30 45 -30 9 0 36 -20 60 -45 24 -25 52 -45 61 -45 9 0 22 -7
29 -15 7 -8 20 -15 29 -15 10 0 30 -13 46 -30 16 -16 36 -30 46 -30 9 0 22 -7
29 -15 7 -8 20 -15 30 -15 10 0 23 -7 30 -15 7 -8 20 -15 30 -15 10 0 23 -7
30 -15 7 -8 20 -15 29 -15 10 0 30 -13 46 -30 16 -16 36 -30 46 -30 9 0 22 -7
29 -15 7 -8 20 -15 30 -15 10 0 23 -7 30 -15 7 -8 20 -15 30 -15 10 0 23 -7
30 -15 7 -8 20 -15 30 -15 10 0 23 -7 30 -15 7 -8 20 -15 30 -15 10 0 23 -7
30 -15 7 -8 20 -15 30 -15 10 0 23 -7 30 -15 7 -8 20 -15 29 -15 10 0 30 -13
46 -30 16 -16 36 -30 46 -30 9 0 22 -7 29 -15 7 -8 20 -15 29 -15 10 0 30 -13
46 -30 16 -16 36 -30 46 -30 9 0 22 -7 29 -15 7 -8 20 -15 29 -15 9 0 37 -20
61 -45 24 -25 51 -45 60 -45 9 0 42 -27 75 -60 38 -38 68 -60 82 -60 19 0 23
-5 23 -30 0 -25 4 -30 23 -30 26 0 67 -38 67 -61 0 -8 27 -41 60 -74 33 -33
60 -67 60 -76 0 -9 7 -22 15 -29 8 -7 15 -27 15 -45 0 -18 7 -38 15 -45 8 -7
15 -27 15 -45 0 -18 7 -38 15 -45 22 -18 22 -402 0 -420 -8 -7 -15 -27 -15
-45 0 -18 -7 -38 -15 -45 -8 -7 -15 -20 -15 -30 0 -10 -7 -23 -15 -30 -8 -7
-15 -20 -15 -29 0 -9 -34 -50 -75 -91 -50 -49 -75 -82 -75 -97 0 -18 -6 -23
-24 -23 -13 0 -29 -7 -36 -15 -7 -8 -20 -15 -29 -15 -10 0 -30 -14 -46 -30
-16 -16 -36 -30 -46 -30 -9 0 -22 -7 -29 -15 -7 -8 -20 -15 -30 -15 -10 0 -23
-7 -30 -15 -7 -8 -27 -15 -45 -15 -18 0 -38 -7 -45 -15 -7 -8 -20 -15 -30 -15
-10 0 -23 -7 -30 -15 -9 -10 -32 -15 -75 -15 -43 0 -66 -5 -75 -15 -10 -12
-43 -15 -180 -15 -137 0 -170 -3 -180 -15 -7 -8 -27 -15 -45 -15 -18 0 -38 7
-45 15 -10 12 -42 15 -165 15 -123 0 -155 3 -165 15 -8 9 -30 15 -60 15 -30 0
-52 6 -60 15 -7 8 -27 15 -45 15 -18 0 -38 7 -45 15 -7 8 -27 15 -45 15 -18 0
-38 7 -45 15 -7 8 -20 15 -30 15 -10 0 -23 7 -30 15 -7 8 -20 15 -30 15 -10 0
-23 7 -30 15 -7 8 -27 15 -44 15 -23 0 -41 9 -61 30 -16 17 -36 30 -46 30 -9
0 -22 7 -29 15 -7 8 -20 15 -29 15 -9 0 -43 27 -76 60 -49 49 -65 60 -93 60
-20 0 -35 6 -38 15 -11 27 -34 17 -34 -14 0 -16 -6 -31 -15 -35 -12 -4 -15
-30 -15 -144 0 -132 1 -140 23 -160 14 -13 36 -22 54 -22 17 0 36 -7 43 -15 8
-9 30 -15 60 -15 30 0 52 -6 60 -15 8 -9 30 -15 60 -15 30 0 52 -6 60 -15 8
-9 30 -15 60 -15 30 0 52 -6 60 -15 9 -10 32 -15 75 -15 43 0 66 -5 75 -15 9
-11 33 -15 90 -15 57 0 81 -4 90 -15 9 -11 35 -15 105 -15 70 0 96 -4 105 -15
11 -13 68 -15 405 -15 337 0 394 2 405 15 9 10 32 15 75 15 43 0 66 5 75 15 7
8 27 15 45 15 18 0 38 7 45 15 7 8 27 15 45 15 18 0 38 7 45 15 7 8 20 15 30
15 10 0 23 7 30 15 7 8 20 15 30 15 10 0 23 7 30 15 7 8 20 15 30 15 10 0 23
7 30 15 7 8 20 15 30 15 10 0 23 7 30 15 7 8 20 15 29 15 10 0 30 14 46 30 16
17 36 30 45 30 20 0 270 251 270 271 0 9 7 22 15 29 8 7 15 27 15 44 0 23 9
41 30 61 21 20 30 38 30 61 0 17 7 37 15 44 8 7 15 20 15 30 0 10 7 23 15 30
10 9 15 32 15 75 0 43 5 66 15 75 22 18 22 372 0 390 -9 8 -15 30 -15 60 0 30
-6 52 -15 60 -8 7 -15 27 -15 45 0 18 -7 38 -15 45 -8 7 -15 20 -15 30 0 10
-7 23 -15 30 -8 7 -15 20 -15 30 0 10 -7 23 -15 30 -8 7 -15 20 -15 30 0 10
-7 23 -15 30 -8 7 -15 20 -15 29 0 20 -310 331 -330 331 -9 0 -42 27 -75 60
-33 33 -67 60 -75 60 -9 0 -29 14 -45 30 -16 17 -36 30 -46 30 -9 0 -22 7 -29
15 -7 8 -27 15 -44 15 -23 0 -41 9 -61 30 -16 17 -36 30 -46 30 -9 0 -22 7
-29 15 -7 8 -20 15 -30 15 -10 0 -23 7 -30 15 -7 8 -20 15 -29 15 -10 0 -30
14 -46 30 -16 17 -36 30 -46 30 -9 0 -22 7 -29 15 -7 8 -20 15 -30 15 -10 0
-23 7 -30 15 -7 8 -27 15 -44 15 -23 0 -41 9 -61 30 -16 17 -36 30 -46 30 -9
0 -22 7 -29 15 -7 8 -20 15 -30 15 -10 0 -23 7 -30 15 -7 8 -20 15 -29 15 -10
0 -30 14 -46 30 -16 17 -36 30 -46 30 -9 0 -22 7 -29 15 -7 8 -20 15 -30 15
-10 0 -23 7 -30 15 -7 8 -20 15 -30 15 -10 0 -23 7 -30 15 -7 8 -20 15 -29 15
-10 0 -30 14 -46 30 -16 17 -36 30 -45 30 -9 0 -29 14 -45 30 -16 17 -36 30
-45 30 -9 0 -29 14 -45 30 -16 17 -36 30 -45 30 -20 0 -240 221 -240 241 0 9
-7 22 -15 29 -8 7 -15 20 -15 30 0 10 -7 23 -15 30 -8 7 -15 20 -15 30 0 10
-7 23 -15 30 -9 8 -15 30 -15 60 0 30 -6 52 -15 60 -12 10 -15 37 -15 120 0
83 3 110 15 120 9 8 15 30 15 60 0 30 6 52 15 60 8 7 15 20 15 30 0 10 7 23
15 30 8 7 15 27 15 44 0 25 11 43 53 84 29 29 59 52 68 52 8 0 41 27 74 60 33
33 67 60 76 60 9 0 22 7 29 15 7 8 20 15 30 15 10 0 23 7 30 15 7 8 20 15 30
15 10 0 23 7 30 15 7 8 20 15 30 15 10 0 23 7 30 15 7 8 27 15 45 15 18 0 38
7 45 15 9 10 32 15 75 15 43 0 66 5 75 15 10 13 52 15 255 15 203 0 245 -2
255 -15 9 -10 32 -15 75 -15 43 0 66 -5 75 -15 8 -9 30 -15 60 -15 30 0 52 -6
60 -15 7 -8 20 -15 30 -15 10 0 23 -7 30 -15 7 -8 27 -15 45 -15 18 0 38 -7
45 -15 7 -8 27 -15 44 -15 24 0 42 -10 76 -45 24 -25 51 -45 60 -45 9 0 29
-13 45 -30 16 -16 36 -30 46 -30 9 0 29 -13 42 -30 31 -36 37 -37 60 -5 15 21
17 43 15 162 -3 133 -4 138 -25 141 -12 2 -27 10 -33 18 -8 8 -31 14 -60 14
-30 0 -52 6 -60 15 -7 8 -27 15 -45 15 -18 0 -38 7 -45 15 -9 10 -32 15 -75
15 -43 0 -66 5 -75 15 -9 10 -32 15 -75 15 -43 0 -66 5 -75 15 -10 12 -37 15
-120 15 -83 0 -110 3 -120 15 -19 22 -581 22 -600 0z"/>
<path d="M4534 11357 c-3 -8 -4 -54 -2 -103 l3 -89 364 -3 c315 -2 366 0 381
13 15 13 73 15 441 13 l424 -3 3 -2119 2 -2120 22 -23 c21 -22 26 -23 204 -23
146 0 184 3 194 14 6 8 21 16 33 18 l22 3 5 2125 5 2125 319 3 c274 2 321 0
336 -13 15 -13 77 -15 486 -13 l469 3 3 79 c3 70 0 81 -19 102 l-22 24 -1834
0 c-1516 0 -1835 -2 -1839 -13z"/>
<path d="M9142 11347 l-22 -23 0 -1397 c0 -1233 2 -1398 15 -1403 8 -4 15 -12
15 -20 0 -8 -7 -14 -15 -14 -8 0 -15 -6 -15 -14 0 -8 7 -16 15 -20 12 -4 15
-25 15 -99 0 -72 4 -98 15 -107 11 -9 15 -33 15 -90 0 -57 4 -81 15 -90 8 -7
15 -20 15 -30 0 -10 7 -23 15 -30 8 -7 15 -27 15 -45 0 -18 7 -38 15 -45 8 -7
15 -20 15 -30 0 -10 7 -23 15 -30 8 -7 15 -20 15 -30 0 -10 7 -23 15 -30 8 -7
15 -27 15 -45 0 -18 7 -38 15 -45 8 -7 15 -20 15 -30 0 -10 7 -23 15 -30 8 -7
15 -20 15 -29 0 -9 27 -43 60 -76 33 -33 60 -66 60 -75 0 -20 221 -240 241
-240 8 0 35 -20 59 -45 24 -25 51 -45 60 -45 9 0 29 -14 45 -30 16 -16 36 -30
46 -30 9 0 22 -7 29 -15 7 -8 27 -15 44 -15 23 0 41 -9 61 -30 20 -21 38 -30
61 -30 17 0 37 -7 44 -15 7 -8 20 -15 30 -15 10 0 23 -7 30 -15 7 -8 27 -15
45 -15 18 0 38 -7 45 -15 8 -9 30 -15 60 -15 30 0 52 -6 60 -15 9 -10 32 -15
75 -15 43 0 66 -5 75 -15 11 -13 72 -15 435 -15 363 0 424 2 435 15 9 10 32
15 75 15 43 0 66 5 75 15 8 9 30 15 60 15 30 0 52 6 60 15 7 8 27 15 45 15 18
0 38 7 45 15 7 8 27 15 44 15 23 0 41 9 61 30 16 17 36 30 46 30 9 0 22 7 29
15 7 8 20 15 30 15 10 0 23 7 30 15 7 8 20 15 30 15 10 0 23 7 30 15 7 8 20
15 29 15 10 0 30 14 46 30 16 17 36 30 45 30 20 0 270 251 270 271 0 9 7 22
15 29 8 7 15 20 15 29 0 10 14 30 30 46 17 16 30 36 30 46 0 9 7 22 15 29 8 7
15 27 15 45 0 18 7 38 15 45 8 7 15 20 15 30 0 10 7 23 15 30 8 7 15 27 15 45
0 18 7 38 15 45 9 8 15 30 15 60 0 30 6 52 15 60 9 8 15 30 15 60 0 30 6 52
15 60 12 10 15 43 15 180 0 137 3 170 15 180 13 11 15 70 15 420 0 350 2 409
15 420 13 11 15 63 15 360 0 297 2 349 15 360 8 7 15 20 15 30 0 10 -7 23 -15
30 -8 7 -15 27 -15 45 0 18 7 38 15 45 13 11 15 77 15 480 0 403 2 469 15 480
8 7 15 21 15 32 0 10 -7 21 -15 24 -8 4 -15 12 -15 19 0 7 7 15 15 19 10 4 15
20 15 54 0 38 -5 53 -23 71 -23 21 -31 21 -193 19 l-169 -3 -3 -1611 c-2
-1417 -4 -1613 -17 -1624 -10 -9 -15 -32 -15 -75 0 -43 -5 -66 -15 -75 -8 -7
-15 -27 -15 -45 0 -18 -7 -38 -15 -45 -8 -7 -15 -20 -15 -30 0 -10 -7 -23 -15
-30 -8 -7 -15 -20 -15 -30 0 -10 -7 -23 -15 -30 -8 -7 -15 -20 -15 -29 0 -10
-13 -30 -30 -46 -16 -16 -30 -36 -30 -45 0 -9 -13 -29 -30 -45 -16 -16 -30
-39 -30 -52 0 -17 -6 -23 -23 -23 -15 0 -48 -25 -97 -75 -41 -41 -82 -75 -90
-75 -9 0 -36 -20 -60 -45 -24 -25 -52 -45 -61 -45 -9 0 -22 -7 -29 -15 -8 -9
-30 -15 -60 -15 -30 0 -52 -6 -60 -15 -7 -8 -20 -15 -30 -15 -10 0 -23 -7 -30
-15 -7 -8 -27 -15 -45 -15 -18 0 -38 -7 -45 -15 -7 -8 -27 -15 -45 -15 -18 0
-38 -7 -45 -15 -9 -10 -32 -15 -75 -15 -43 0 -66 -5 -75 -15 -11 -13 -57 -15
-300 -15 -243 0 -289 2 -300 15 -9 10 -32 15 -75 15 -43 0 -66 5 -75 15 -8 9
-30 15 -60 15 -30 0 -52 6 -60 15 -7 8 -20 15 -30 15 -10 0 -23 7 -30 15 -7 8
-20 15 -30 15 -10 0 -23 7 -30 15 -7 8 -20 15 -30 15 -10 0 -23 7 -30 15 -7 8
-27 15 -44 15 -25 0 -43 12 -91 60 -33 33 -66 60 -75 60 -20 0 -180 161 -180
181 0 8 -20 35 -45 59 -25 24 -45 51 -45 60 0 9 -13 29 -30 45 -16 16 -30 36
-30 46 0 9 -7 22 -15 29 -8 7 -15 20 -15 30 0 10 -7 23 -15 30 -8 7 -15 27
-15 45 0 18 -7 38 -15 45 -9 8 -15 30 -15 60 0 30 -6 52 -15 60 -9 8 -15 30
-15 60 0 30 -6 52 -15 60 -10 9 -15 32 -15 75 0 43 -5 66 -15 75 -13 11 -15
188 -15 1484 l0 1473 -23 21 c-22 21 -31 22 -233 22 -207 0 -211 0 -232 -23z"/>
<path d="M14077 11363 c-4 -3 -7 -999 -7 -2213 l0 -2207 23 -21 23 -22 856 0
c748 0 857 2 868 15 10 12 45 15 195 15 150 0 185 3 195 15 9 11 35 15 105 15
70 0 96 4 105 15 8 9 30 15 60 15 30 0 52 6 60 15 8 9 30 15 60 15 30 0 52 6
60 15 8 9 30 15 60 15 30 0 52 6 60 15 7 8 27 15 45 15 18 0 38 7 45 15 8 9
30 15 60 15 30 0 52 6 60 15 7 8 20 15 30 15 10 0 23 7 30 15 7 8 20 15 30 15
10 0 23 7 30 15 7 8 20 15 30 15 10 0 23 7 30 15 7 8 20 15 30 15 10 0 23 7
30 15 7 8 20 15 29 15 10 0 30 14 46 30 16 16 36 30 46 30 9 0 22 7 29 15 7 8
20 15 29 15 10 0 30 13 46 30 16 17 36 30 45 30 8 0 49 34 90 75 41 41 81 75
90 75 20 0 210 191 210 211 0 8 20 35 45 59 25 24 45 51 45 60 0 9 14 29 30
45 17 16 30 36 30 45 0 9 14 29 30 45 17 16 30 36 30 46 0 9 7 22 15 29 8 7
15 20 15 30 0 10 7 23 15 30 8 7 15 27 15 45 0 18 7 38 15 45 8 7 15 20 15 30
0 10 7 23 15 30 8 7 15 20 15 30 0 10 7 23 15 30 8 7 15 20 15 30 0 10 7 23
15 30 8 7 15 27 15 45 0 18 7 38 15 45 10 9 15 32 15 75 0 43 5 66 15 75 11 9
15 35 15 105 0 70 4 96 15 105 13 11 15 55 15 285 0 230 -2 274 -15 285 -11 9
-15 33 -15 90 0 57 -4 81 -15 90 -9 8 -15 30 -15 60 0 30 -6 52 -15 60 -8 7
-15 27 -15 45 0 18 -7 38 -15 45 -8 7 -15 20 -15 30 0 10 -7 23 -15 30 -8 7
-15 27 -15 45 0 18 -7 38 -15 45 -8 7 -15 27 -15 44 0 23 -9 41 -30 61 -21 20
-30 38 -30 60 0 22 -9 40 -30 60 -16 16 -30 36 -30 46 0 9 -7 22 -15 29 -8 7
-15 20 -15 29 0 9 -27 43 -60 76 -33 33 -60 67 -60 76 0 9 -7 22 -15 29 -8 7
-15 23 -15 36 0 20 -5 24 -30 24 -27 0 -30 3 -30 30 0 25 -4 30 -23 30 -15 0
-56 33 -127 105 -58 58 -112 105 -120 105 -9 0 -29 14 -45 30 -16 17 -36 30
-45 30 -9 0 -36 20 -60 45 -24 25 -52 45 -61 45 -9 0 -22 7 -29 15 -7 8 -20
15 -30 15 -10 0 -23 7 -30 15 -7 8 -20 15 -30 15 -10 0 -23 7 -30 15 -7 8 -20
15 -30 15 -10 0 -23 7 -30 15 -7 8 -20 15 -30 15 -10 0 -23 7 -30 15 -7 8 -27
15 -45 15 -18 0 -38 7 -45 15 -7 8 -20 15 -30 15 -10 0 -23 7 -30 15 -7 8 -27
15 -45 15 -18 0 -38 7 -45 15 -7 8 -27 15 -45 15 -18 0 -38 7 -45 15 -7 8 -27
15 -45 15 -18 0 -38 7 -45 15 -8 9 -30 15 -60 15 -30 0 -52 6 -60 15 -9 11
-33 15 -90 15 -57 0 -81 4 -90 15 -10 12 -40 15 -150 15 -110 0 -140 3 -150
15 -11 13 -135 15 -1005 15 -545 0 -995 -3 -998 -7z m2183 -218 c9 -10 32 -15
75 -15 43 0 66 -5 75 -15 7 -8 27 -15 45 -15 18 0 38 -7 45 -15 7 -8 27 -15
45 -15 18 0 38 -7 45 -15 7 -8 27 -15 45 -15 18 0 38 -7 45 -15 7 -8 20 -15
30 -15 10 0 23 -7 30 -15 7 -8 20 -15 30 -15 10 0 23 -7 30 -15 7 -8 27 -15
45 -15 18 0 38 -7 45 -15 7 -8 20 -15 30 -15 10 0 23 -7 30 -15 7 -8 20 -15
29 -15 9 0 43 -27 76 -60 33 -33 66 -60 75 -60 20 0 300 -280 300 -300 0 -9
20 -36 45 -60 25 -24 45 -52 45 -61 0 -9 7 -22 15 -29 8 -7 15 -20 15 -30 0
-10 7 -23 15 -30 8 -7 15 -20 15 -30 0 -10 7 -23 15 -30 8 -7 15 -20 15 -30 0
-10 7 -23 15 -30 8 -7 15 -20 15 -30 0 -10 7 -23 15 -30 8 -7 15 -20 15 -30 0
-10 7 -23 15 -30 8 -7 15 -20 15 -30 0 -10 7 -23 15 -30 9 -8 15 -30 15 -60 0
-30 6 -52 15 -60 10 -9 15 -32 15 -75 0 -43 5 -66 15 -75 11 -9 15 -35 15
-105 0 -70 4 -96 15 -105 13 -11 15 -60 15 -330 0 -270 -2 -319 -15 -330 -11
-9 -15 -35 -15 -105 0 -70 -4 -96 -15 -105 -10 -9 -15 -32 -15 -75 0 -43 -5
-66 -15 -75 -9 -8 -15 -30 -15 -60 0 -30 -6 -52 -15 -60 -8 -7 -15 -27 -15
-45 0 -18 -7 -38 -15 -45 -8 -7 -15 -20 -15 -30 0 -10 -7 -23 -15 -30 -8 -7
-15 -20 -15 -30 0 -10 -7 -23 -15 -30 -8 -7 -15 -20 -15 -30 0 -10 -7 -23 -15
-30 -8 -7 -15 -20 -15 -30 0 -10 -7 -23 -15 -30 -8 -7 -15 -20 -15 -29 0 -9
-20 -37 -45 -61 -25 -24 -45 -51 -45 -60 0 -8 -47 -62 -105 -120 -72 -71 -105
-112 -105 -127 0 -17 -6 -23 -23 -23 -14 0 -40 -18 -67 -45 -24 -25 -51 -45
-60 -45 -9 0 -36 -20 -60 -45 -24 -25 -52 -45 -61 -45 -9 0 -22 -7 -29 -15 -7
-8 -20 -15 -30 -15 -10 0 -23 -7 -30 -15 -7 -8 -20 -15 -30 -15 -10 0 -23 -7
-30 -15 -7 -8 -20 -15 -30 -15 -10 0 -23 -7 -30 -15 -7 -8 -20 -15 -30 -15
-10 0 -23 -7 -30 -15 -7 -8 -27 -15 -45 -15 -18 0 -38 -7 -45 -15 -8 -9 -30
-15 -60 -15 -30 0 -52 -6 -60 -15 -8 -9 -30 -15 -60 -15 -30 0 -52 -6 -60 -15
-8 -9 -30 -15 -60 -15 -30 0 -52 -6 -60 -15 -10 -12 -37 -15 -120 -15 -84 0
-110 -3 -120 -15 -11 -13 -100 -15 -724 -13 l-711 3 -3 2010 c-1 1106 0 2016
3 2023 3 9 179 12 833 12 725 0 831 -2 842 -15z"/>
<path d="M19522 11347 l-22 -23 0 -2176 c0 -1881 2 -2177 14 -2188 8 -6 16
-21 18 -33 3 -22 5 -22 223 -22 218 0 220 0 223 22 2 12 10 27 18 33 12 11 14
307 14 2189 l0 2178 -23 21 c-22 21 -31 22 -233 22 -207 0 -211 0 -232 -23z"/>
<path d="M21784 7127 c-3 -8 -4 -54 -2 -103 3 -83 5 -89 25 -92 12 -2 27 -10
33 -18 11 -12 227 -14 1574 -14 l1563 0 22 24 c20 21 22 32 19 117 l-3 94
-216 3 c-183 2 -218 0 -229 -13 -11 -13 -144 -15 -1140 -15 -990 0 -1129 2
-1140 15 -17 21 -498 23 -506 2z"/>
<path d="M2760 6436 c-7 -9 -20 -16 -29 -16 -9 0 -43 -27 -76 -60 -47 -47 -66
-60 -90 -60 -24 0 -43 -13 -90 -60 -33 -33 -67 -60 -75 -60 -9 0 -29 -13 -45
-30 -16 -16 -36 -30 -45 -30 -9 0 -29 -13 -45 -30 -16 -16 -36 -30 -45 -30 -9
0 -29 -13 -45 -30 -16 -16 -36 -30 -45 -30 -9 0 -36 -20 -60 -45 -24 -25 -51
-45 -60 -45 -16 0 -120 -96 -120 -111 0 -16 136 -11 150 6 7 8 20 15 29 15 10
0 30 14 46 30 16 17 36 30 46 30 9 0 22 7 29 15 7 8 20 15 30 15 10 0 23 7 30
15 7 8 20 15 30 15 10 0 23 7 30 15 7 8 20 15 30 15 10 0 23 7 30 15 7 8 20
15 29 15 10 0 30 14 46 30 16 17 36 30 45 30 9 0 29 14 45 30 20 21 38 30 61
30 17 0 37 7 44 15 7 8 20 15 29 15 10 0 30 14 46 30 16 17 36 30 45 30 9 0
35 20 60 45 24 24 53 45 64 47 32 5 31 37 -2 72 -17 17 -32 40 -34 51 -4 26
-68 34 -88 11z"/>
<path d="M6210 5505 c-9 -11 -35 -15 -105 -15 -70 0 -96 -4 -105 -15 -9 -10
-32 -15 -75 -15 -43 0 -66 -5 -75 -15 -7 -8 -27 -15 -45 -15 -18 0 -38 -7 -45
-15 -7 -8 -27 -15 -45 -15 -18 0 -38 -7 -45 -15 -7 -8 -20 -15 -30 -15 -10 0
-23 -7 -30 -15 -7 -8 -27 -15 -45 -15 -18 0 -38 -7 -45 -15 -7 -8 -27 -15 -45
-15 -18 0 -38 -7 -45 -15 -7 -8 -20 -15 -29 -15 -10 0 -30 -13 -46 -30 -16
-16 -36 -30 -45 -30 -9 0 -29 -13 -45 -30 -16 -16 -36 -30 -45 -30 -9 0 -29
-13 -45 -30 -16 -16 -36 -30 -45 -30 -9 0 -29 -13 -45 -30 -16 -16 -39 -30
-52 -30 -19 0 -23 -5 -23 -30 0 -25 -4 -30 -23 -30 -26 0 -217 -185 -217 -210
0 -9 -34 -49 -75 -90 -41 -41 -75 -82 -75 -90 0 -9 -13 -29 -30 -45 -16 -16
-30 -36 -30 -46 0 -9 -7 -22 -15 -29 -8 -7 -15 -20 -15 -30 0 -10 -7 -23 -15
-30 -8 -7 -15 -20 -15 -30 0 -10 -7 -23 -15 -30 -8 -7 -15 -20 -15 -30 0 -10
-7 -23 -15 -30 -8 -7 -15 -20 -15 -30 0 -10 -7 -23 -15 -30 -8 -7 -15 -20 -15
-30 0 -10 -7 -23 -15 -30 -8 -7 -15 -20 -15 -30 0 -10 -7 -23 -15 -30 -9 -8
-15 -30 -15 -60 0 -30 -6 -52 -15 -60 -9 -8 -15 -30 -15 -60 0 -30 -6 -52 -15
-60 -10 -9 -15 -32 -15 -75 0 -43 -5 -66 -15 -75 -12 -10 -15 -37 -15 -120 0
-83 -3 -110 -15 -120 -12 -10 -15 -38 -15 -135 0 -97 3 -125 15 -135 12 -10
15 -37 15 -120 0 -83 3 -110 15 -120 10 -9 15 -32 15 -75 0 -43 5 -66 15 -75
9 -8 15 -30 15 -60 0 -30 6 -52 15 -60 8 -7 15 -27 15 -45 0 -18 7 -38 15 -45
8 -7 15 -27 15 -45 0 -18 7 -38 15 -45 8 -7 15 -20 15 -30 0 -10 7 -23 15 -30
8 -7 15 -20 15 -30 0 -10 7 -23 15 -30 8 -7 15 -20 15 -30 0 -10 7 -23 15 -30
8 -7 15 -20 15 -29 0 -10 14 -30 30 -46 17 -16 30 -36 30 -46 0 -9 7 -22 15
-29 8 -7 15 -20 15 -29 0 -10 14 -30 30 -46 17 -16 30 -36 30 -45 0 -8 27 -42
60 -75 33 -33 60 -66 60 -75 0 -20 190 -210 210 -210 9 0 42 -27 75 -60 33
-33 67 -60 75 -60 9 0 29 -13 45 -30 16 -16 36 -30 45 -30 9 0 29 -13 45 -30
16 -17 36 -30 46 -30 9 0 22 -7 29 -15 7 -8 20 -15 30 -15 10 0 23 -7 30 -15
7 -8 20 -15 30 -15 10 0 23 -7 30 -15 7 -8 20 -15 30 -15 10 0 23 -7 30 -15 7
-8 27 -15 45 -15 18 0 38 -7 45 -15 7 -8 27 -15 45 -15 18 0 38 -7 45 -15 7
-8 27 -15 45 -15 18 0 38 -7 45 -15 8 -9 30 -15 60 -15 30 0 52 -6 60 -15 8
-9 30 -15 60 -15 30 0 52 -6 60 -15 10 -12 40 -15 150 -15 110 0 140 -3 150
-15 17 -21 133 -21 150 0 10 12 40 15 150 15 110 0 140 3 150 15 8 9 30 15 60
15 30 0 52 6 60 15 8 9 30 15 60 15 30 0 52 6 60 15 8 9 30 15 60 15 30 0 52
6 60 15 7 8 20 15 30 15 10 0 23 7 30 15 7 8 27 15 45 15 18 0 38 7 45 15 7 8
20 15 29 15 10 0 30 14 46 30 20 21 38 30 60 30 22 0 40 9 60 30 16 16 36 30
45 30 9 0 29 14 45 30 16 16 36 30 45 30 9 0 29 14 45 30 16 17 36 30 44 30 9
0 88 71 175 159 169 170 183 193 116 199 -33 3 -43 -5 -155 -118 -66 -66 -127
-120 -135 -120 -9 0 -29 -13 -45 -30 -16 -16 -36 -30 -45 -30 -9 0 -29 -14
-45 -30 -16 -17 -36 -30 -46 -30 -9 0 -22 -7 -29 -15 -8 -9 -30 -15 -59 -15
-39 0 -52 -5 -76 -30 -16 -17 -36 -30 -46 -30 -9 0 -22 -7 -29 -15 -7 -8 -27
-15 -45 -15 -18 0 -38 -7 -45 -15 -8 -9 -30 -15 -60 -15 -30 0 -52 -6 -60 -15
-9 -11 -35 -15 -105 -15 -70 0 -96 -4 -105 -15 -18 -22 -312 -22 -330 0 -9 11
-35 15 -105 15 -70 0 -96 4 -105 15 -8 9 -30 15 -60 15 -30 0 -52 6 -60 15 -9
10 -32 15 -75 15 -43 0 -66 5 -75 15 -7 8 -27 15 -44 15 -23 0 -41 9 -61 30
-20 21 -38 30 -61 30 -17 0 -37 7 -44 15 -7 8 -20 15 -30 15 -10 0 -23 7 -30
15 -7 8 -20 15 -30 15 -10 0 -23 7 -30 15 -7 8 -20 15 -30 15 -10 0 -23 7 -30
15 -7 8 -20 15 -29 15 -10 0 -30 14 -46 30 -16 17 -36 30 -45 30 -8 0 -42 27
-75 60 -33 33 -66 60 -75 60 -9 0 -36 20 -60 45 -24 25 -51 45 -60 45 -20 0
-300 280 -300 301 0 8 -13 28 -30 44 -16 16 -30 36 -30 45 0 9 -20 36 -45 60
-25 24 -45 51 -45 60 0 9 -13 29 -30 45 -16 16 -30 36 -30 46 0 9 -7 22 -15
29 -8 7 -15 20 -15 30 0 10 -7 23 -15 30 -8 7 -15 20 -15 30 0 10 -7 23 -15
30 -8 7 -15 20 -15 30 0 10 -7 23 -15 30 -8 7 -15 20 -15 30 0 10 -7 23 -15
30 -8 7 -15 27 -15 45 0 18 -7 38 -15 45 -8 7 -15 20 -15 30 0 10 -7 23 -15
30 -8 7 -15 27 -15 45 0 18 -7 38 -15 45 -8 7 -15 27 -15 45 0 18 -7 38 -15
45 -11 9 -15 35 -15 105 0 70 -4 96 -15 105 -13 10 -15 52 -15 255 0 203 2
245 15 255 11 9 15 35 15 105 0 70 4 96 15 105 8 7 15 27 15 45 0 18 7 38 15
45 8 7 15 20 15 30 0 10 7 23 15 30 8 7 15 20 15 30 0 10 7 23 15 30 8 7 15
27 15 45 0 18 7 38 15 45 8 7 15 20 15 29 0 10 14 30 30 46 17 16 30 36 30 46
0 9 7 22 15 29 8 7 15 20 15 29 0 9 34 50 75 91 41 41 75 82 75 91 0 22 42 59
68 59 16 0 22 6 22 23 0 26 38 67 61 67 9 0 28 14 44 30 16 17 36 30 45 30 9
0 36 20 60 45 24 25 52 45 61 45 9 0 22 7 29 15 7 8 20 15 30 15 10 0 23 7 30
15 7 8 20 15 30 15 10 0 23 7 30 15 8 9 30 15 60 15 30 0 52 6 60 15 7 8 20
15 30 15 10 0 23 7 30 15 8 9 30 15 60 15 30 0 52 6 60 15 9 10 32 15 75 15
43 0 66 5 75 15 10 13 52 15 255 15 203 0 245 -2 255 -15 9 -10 32 -15 75 -15
43 0 66 -5 75 -15 8 -9 30 -15 60 -15 30 0 52 -6 60 -15 7 -8 27 -15 45 -15
18 0 38 -7 45 -15 8 -9 30 -15 60 -15 30 0 52 -6 60 -15 7 -8 20 -15 30 -15
10 0 23 -7 30 -15 7 -8 20 -15 30 -15 10 0 23 -7 30 -15 7 -8 20 -15 30 -15
10 0 23 -7 30 -15 7 -8 20 -15 29 -15 10 0 30 -13 46 -30 16 -16 36 -30 46
-30 9 0 22 -7 29 -15 7 -8 20 -15 30 -15 10 0 23 -7 30 -15 7 -8 20 -15 29
-15 9 0 37 -20 61 -45 24 -25 51 -45 60 -45 9 0 42 -27 75 -60 33 -33 66 -60
75 -60 8 0 56 -41 105 -90 55 -56 97 -90 107 -88 17 3 268 245 268 259 0 4 -7
9 -15 13 -8 3 -15 14 -15 24 0 22 -40 62 -61 62 -8 0 -61 47 -119 105 -58 58
-112 105 -121 105 -9 0 -22 7 -29 15 -7 8 -20 15 -29 15 -9 0 -37 20 -61 45
-24 25 -52 45 -61 45 -9 0 -22 7 -29 15 -7 8 -20 15 -30 15 -10 0 -23 7 -30
15 -7 8 -20 15 -30 15 -10 0 -23 7 -30 15 -7 8 -20 15 -30 15 -10 0 -23 7 -30
15 -7 8 -27 15 -45 15 -18 0 -38 7 -45 15 -7 8 -27 15 -45 15 -18 0 -38 7 -45
15 -7 8 -27 15 -45 15 -18 0 -38 7 -45 15 -7 8 -27 15 -45 15 -18 0 -38 7 -45
15 -8 9 -30 15 -60 15 -30 0 -52 6 -60 15 -9 11 -35 15 -105 15 -70 0 -96 4
-105 15 -10 12 -45 15 -195 15 -150 0 -185 -3 -195 -15z"/>
<path d="M1222 5467 l-22 -23 2 -2105 3 -2104 1210 0 1210 0 0 100 0 100 -156
3 c-130 2 -158 0 -169 -13 -11 -13 -87 -15 -615 -15 -527 0 -604 -2 -615 -15
-11 -13 -44 -15 -214 -13 l-201 3 -3 904 c-2 783 0 906 13 920 10 12 15 46 17
111 l3 95 111 3 c90 2 113 0 124 -13 11 -13 69 -15 450 -15 378 0 439 -2 450
-15 11 -13 60 -15 364 -13 l351 3 0 100 0 100 -291 3 c-250 2 -293 0 -304 -13
-11 -13 -60 -15 -345 -15 -285 0 -334 -2 -345 -15 -11 -13 -54 -15 -304 -13
l-291 3 0 910 0 910 364 3 c314 2 366 0 381 -13 15 -13 90 -15 606 -13 l589 3
0 85 0 85 -1176 3 -1175 2 -22 -23z"/>
<path d="M8902 5467 c-25 -27 -29 -55 -7 -63 8 -4 15 -12 15 -19 0 -7 -7 -15
-15 -19 -13 -5 -15 -242 -15 -2049 l0 -2044 23 -21 c23 -22 30 -22 223 -20
l199 3 5 1045 5 1045 1240 0 1240 0 5 -1045 5 -1045 235 0 235 0 3 2104 2
2105 -22 23 c-21 22 -26 23 -204 23 -146 0 -184 -3 -194 -14 -6 -8 -21 -16
-33 -18 l-22 -3 -5 -955 -5 -955 -1240 0 -1240 0 -5 970 -5 970 -201 3 c-198
2 -200 2 -222 -21z"/>
<path d="M13415 5478 c-3 -7 -4 -965 -3 -2128 l3 -2115 1195 0 1195 0 3 79 c3
70 0 81 -19 102 -21 23 -29 24 -145 24 -96 0 -124 -3 -134 -15 -11 -13 -90
-15 -600 -15 -513 0 -589 -2 -600 -15 -11 -13 -46 -15 -229 -13 l-216 3 0
1015 0 1015 126 3 c103 2 128 0 139 -13 11 -13 67 -15 420 -15 350 0 409 -2
420 -15 11 -13 65 -15 374 -15 l363 0 21 23 c32 34 32 134 -1 165 -23 21 -30
22 -294 22 -228 0 -272 -2 -283 -15 -11 -13 -63 -15 -360 -15 -298 0 -349 -2
-360 -15 -11 -13 -52 -15 -289 -13 l-276 3 -3 889 -2 890 22 23 21 23 348 0
c297 0 348 -2 359 -15 11 -13 87 -15 604 -13 l591 3 3 64 c3 54 0 67 -19 87
l-22 24 -1174 0 c-930 0 -1175 -3 -1178 -12z"/>
<path d="M16823 5471 c-27 -22 -29 -37 -8 -45 8 -3 15 -14 15 -24 0 -11 -7
-25 -15 -32 -12 -10 -15 -37 -15 -120 0 -83 3 -110 15 -120 13 -11 15 -235 15
-1905 0 -1670 -2 -1894 -15 -1905 -22 -18 -19 -43 8 -68 l23 -22 1190 2 1189
3 0 100 0 100 -141 3 c-117 2 -143 0 -154 -13 -11 -13 -85 -15 -600 -15 -513
0 -589 -2 -600 -15 -11 -13 -47 -15 -244 -13 l-231 3 -3 1761 c-2 1557 0 1763
13 1774 22 18 22 431 0 450 -8 7 -15 34 -17 63 l-3 52 -200 2 c-183 2 -202 1
-222 -16z"/>
<path d="M19822 5467 l-22 -23 2 -2105 3 -2104 1210 0 1210 0 3 23 c2 13 10
26 18 29 18 7 18 29 -1 37 -9 3 -15 18 -15 39 0 22 -8 41 -23 55 -21 20 -34
22 -144 22 -95 0 -123 -3 -133 -15 -11 -13 -92 -15 -615 -15 -527 0 -604 -2
-615 -15 -11 -13 -44 -15 -214 -13 l-201 3 -5 2035 -5 2035 -22 3 c-12 2 -27
10 -33 18 -10 11 -48 14 -194 14 -178 0 -183 -1 -204 -23z"/>
<path d="M22912 5467 l-22 -23 2 -2105 3 -2104 1210 0 1210 0 3 23 c2 13 10
26 18 29 18 7 18 29 -1 37 -9 3 -15 18 -15 39 0 22 -8 41 -23 55 -22 20 -33
22 -159 22 -108 0 -138 -3 -148 -15 -11 -13 -88 -15 -585 -15 -500 0 -574 -2
-585 -15 -11 -13 -46 -15 -229 -13 l-216 3 0 1015 0 1015 111 3 c90 2 113 0
124 -13 11 -13 68 -15 435 -15 365 0 424 -2 435 -15 11 -13 62 -15 379 -13
l366 3 0 100 0 100 -291 3 c-250 2 -293 0 -304 -13 -11 -13 -60 -15 -345 -15
-285 0 -334 -2 -345 -15 -11 -13 -52 -15 -289 -13 l-276 3 -3 889 -2 890 22
23 21 23 333 0 c283 0 333 -2 344 -15 11 -13 89 -15 619 -13 l606 3 0 70 c0
64 -2 70 -22 73 -12 2 -27 10 -33 18 -11 12 -175 14 -1169 14 l-1158 0 -21
-23z"/>
<path d="M8070 4785 c0 -8 7 -15 15 -15 8 0 15 7 15 15 0 8 -7 15 -15 15 -8 0
-15 -7 -15 -15z"/>
</g>
</svg>
